name C:\Users\antoi\Documents\MyRepositories\upper-imu-dc\Results\main_tracking\Case_76\FLX01_angularVelocities_bodyFrame.mot
datacolumns 4
datarows 47
range 5.01000000 5.47000000
endheader 
time	radius_imu_x	radius_imu_y	radius_imu_z	
          5.01000000	          1.46674948	         -0.50988284	          0.11461198	
          5.02000000	          1.44925121	         -0.52614317	          0.11084538	
          5.03000000	          1.43196719	         -0.54149799	          0.10812651	
          5.04000000	          1.41500956	         -0.55564813	          0.10635197	
          5.05000000	          1.39849527	         -0.56823327	          0.10540861	
          5.06000000	          1.38254027	         -0.57879974	          0.10517416	
          5.07000000	          1.36725488	         -0.58679769	          0.10551686	
          5.08000000	          1.35274176	         -0.59162005	          0.10629497	
          5.09000000	          1.33909611	         -0.59267868	          0.10735761	
          5.10000000	          1.32640727	         -0.58949551	          0.10854872	
          5.11000000	          1.31475904	         -0.58177837	          0.10971458	
          5.12000000	          1.30422464	         -0.56945612	          0.11071371	
          5.13000000	          1.29485924	         -0.55266835	          0.11142869	
          5.14000000	          1.28669294	         -0.53172157	          0.11177414	
          5.15000000	          1.27971184	         -0.50706911	          0.11169066	
          5.16000000	          1.27388269	         -0.47923072	          0.11115897	
          5.17000000	          1.26911640	         -0.44892567	          0.11018844	
          5.18000000	          1.26532954	         -0.41689635	          0.10880788	
          5.19000000	          1.26240879	         -0.38396131	          0.10705690	
          5.20000000	          1.26019343	         -0.35108612	          0.10497621	
          5.21000000	          1.25855086	         -0.31925356	          0.10261248	
          5.22000000	          1.25735471	         -0.28945227	          0.10001797	
          5.23000000	          1.25646538	         -0.26258198	          0.09724294	
          5.24000000	          1.25573973	         -0.23941565	          0.09429059	
          5.25000000	          1.25503617	         -0.22054187	          0.09113990	
          5.26000000	          1.25424902	         -0.20634863	          0.08774159	
          5.27000000	          1.25331354	         -0.19703135	          0.08402480	
          5.28000000	          1.25218527	         -0.19263280	          0.07986260	
          5.29000000	          1.25082309	         -0.19308206	          0.07509186	
          5.30000000	          1.24925614	         -0.19824012	          0.06956510	
          5.31000000	          1.24756064	         -0.20794206	          0.06313909	
          5.32000000	          1.24579787	         -0.22199906	          0.05567644	
          5.33000000	          1.24404016	         -0.24021597	          0.04705765	
          5.34000000	          1.24236526	         -0.26238337	          0.03719239	
          5.35000000	          1.24084595	         -0.28826928	          0.02601422	
          5.36000000	          1.23954262	         -0.31760691	          0.01347566	
          5.37000000	          1.23850619	         -0.35008696	         -0.00045308	
          5.38000000	          1.23776780	         -0.38535218	         -0.01579465	
          5.39000000	          1.23733496	         -0.42299442	         -0.03256905	
          5.40000000	          1.23720784	         -0.46255017	         -0.05078044	
          5.41000000	          1.23738336	         -0.50349741	         -0.07041361	
          5.42000000	          1.23785147	         -0.54524910	         -0.09143091	
          5.43000000	          1.23859615	         -0.58714909	         -0.11376950	
          5.44000000	          1.23959638	         -0.62846977	         -0.13733839	
          5.45000000	          1.24082774	         -0.66841724	         -0.16201832	
          5.46000000	          1.24226501	         -0.70614607	         -0.18766461	
          5.47000000	          1.24388473	         -0.74078207	         -0.21411143	
